<svg width="160" height="23" viewBox="0 0 160 23" fill="none" xmlns="http://www.w3.org/2000/svg">
<g clip-path="url(#clip0)">
<path d="M148.609 9.67821C148.529 8.67681 148.825 7.68169 149.439 6.88657C150.053 6.09146 150.941 5.55327 151.93 5.37678H147.809C147.724 5.37678 147.686 5.37678 147.657 5.2721C147.2 3.62575 146.791 2.18877 146.325 0.513873C146.311 0.432373 146.326 0.348622 146.368 0.277288C146.41 0.205954 146.475 0.151583 146.553 0.123699C147.257 -0.0271801 147.984 -0.0320904 148.69 0.109272C149.396 0.250633 150.065 0.535262 150.656 0.94556C151.248 1.35586 151.749 1.8831 152.128 2.49469C152.508 3.10628 152.758 3.78921 152.863 4.50126C152.946 5.25711 152.946 6.01985 152.863 6.77569L152.539 9.28804C152.539 9.35465 152.539 9.37368 152.453 9.3832L149.503 9.91612L148.989 10.0113C148.939 10.0247 148.886 10.0261 148.836 10.0155C148.785 10.0049 148.737 9.9825 148.696 9.95013C148.655 9.91775 148.623 9.87629 148.601 9.82907C148.579 9.78186 148.569 9.73019 148.571 9.67821" fill="#FF6C65"/>
<path d="M157.706 9.67823C157.786 8.67683 157.49 7.68171 156.876 6.88659C156.262 6.09148 155.374 5.55329 154.385 5.3768H158.506C158.582 5.3768 158.629 5.3768 158.648 5.27212L159.99 0.513896C160.002 0.467653 160.004 0.419623 159.996 0.372564C159.989 0.325505 159.973 0.280343 159.948 0.23967C159.923 0.198996 159.891 0.163613 159.852 0.13555C159.814 0.107487 159.77 0.0872971 159.724 0.0761392C159.02 -0.0733009 158.293 -0.0771595 157.588 0.064801C156.883 0.206761 156.214 0.491538 155.623 0.901603C155.032 1.31167 154.531 1.83835 154.151 2.44923C153.772 3.0601 153.521 3.74226 153.414 4.4537C153.328 5.20939 153.328 5.97245 153.414 6.72813L153.728 9.24048C153.728 9.26415 153.737 9.28702 153.753 9.30461C153.769 9.32221 153.791 9.33327 153.814 9.33564L156.764 9.86856L157.288 9.96373C157.338 9.97514 157.39 9.97515 157.44 9.96374C157.49 9.95233 157.537 9.9298 157.577 9.89781C157.617 9.86583 157.65 9.82521 157.672 9.77896C157.694 9.73272 157.706 9.68203 157.706 9.63065" fill="#FF6C65"/>
<path d="M8.05091 22.002C12.6569 22.002 14.8932 20.3271 14.8932 16.8822C14.8932 13.5895 12.6569 11.9812 8.05091 11.9812H6.83281C5.70987 11.9812 5.13888 11.6577 5.13888 11.0296C5.13888 10.5823 5.35776 9.83049 6.83281 9.83049H14.446C14.5722 9.83049 14.6932 9.78036 14.7824 9.69113C14.8717 9.6019 14.9218 9.48087 14.9218 9.35467V6.36651C14.9218 6.24031 14.8717 6.11929 14.7824 6.03005C14.6932 5.94082 14.5722 5.89069 14.446 5.89069H6.83281C2.23636 5.89069 0 7.61316 0 11.0105C0 14.2747 2.23636 15.902 6.83281 15.902H8.05091C9.17385 15.902 9.74484 16.2351 9.74484 16.8536C9.74484 17.3009 9.52596 18.0432 8.05091 18.0432H0.475822C0.349626 18.0432 0.228599 18.0933 0.139365 18.1826C0.0501311 18.2718 0 18.3928 0 18.519L0 21.4977C0 21.6239 0.0501311 21.7449 0.139365 21.8341C0.228599 21.9233 0.349626 21.9735 0.475822 21.9735L8.05091 22.002Z" fill="#FF6C65"/>
<path d="M31.0238 5.89069H18.3098C18.1836 5.89069 18.0626 5.94082 17.9733 6.03005C17.8841 6.11929 17.834 6.24031 17.834 6.36651V21.5262C17.834 21.6524 17.8841 21.7734 17.9733 21.8627C18.0626 21.9519 18.1836 22.002 18.3098 22.002H31.0238C31.15 22.002 31.271 21.9519 31.3602 21.8627C31.4495 21.7734 31.4996 21.6524 31.4996 21.5262V18.5476C31.4996 18.4214 31.4495 18.3003 31.3602 18.2111C31.271 18.1219 31.15 18.0717 31.0238 18.0717H22.9729V15.902H31.0238C31.15 15.902 31.271 15.8519 31.3602 15.7626C31.4495 15.6734 31.4996 15.5524 31.4996 15.4262V12.457C31.4996 12.3308 31.4495 12.2098 31.3602 12.1206C31.271 12.0313 31.15 11.9812 31.0238 11.9812H22.9729V9.81146H31.0238C31.15 9.81146 31.271 9.76133 31.3602 9.6721C31.4495 9.58286 31.4996 9.46184 31.4996 9.33564V6.36651C31.4996 6.24031 31.4495 6.11929 31.3602 6.03005C31.271 5.94082 31.15 5.89069 31.0238 5.89069Z" fill="#FF6C65"/>
<path d="M47.6393 22.002C47.7647 21.9996 47.8843 21.9487 47.973 21.86C48.0617 21.7713 48.1126 21.6516 48.1151 21.5262V18.5476C48.1126 18.4221 48.0617 18.3025 47.973 18.2138C47.8843 18.1251 47.7647 18.0742 47.6393 18.0717H39.5788V6.36651C39.5788 6.24031 39.5287 6.11929 39.4395 6.03005C39.3502 5.94082 39.2292 5.89069 39.103 5.89069H34.9158C34.7896 5.89069 34.6685 5.94082 34.5793 6.03005C34.4901 6.11929 34.4399 6.24031 34.4399 6.36651V21.5262C34.4424 21.6516 34.4933 21.7713 34.582 21.86C34.6707 21.9487 34.7903 21.9996 34.9158 22.002H47.6393Z" fill="#FF6C65"/>
<path d="M64.7118 15.4262V12.457C64.7093 12.3316 64.6584 12.212 64.5697 12.1233C64.481 12.0346 64.3614 11.9836 64.2359 11.9812H56.1945V9.81146H64.255C64.3812 9.81146 64.5022 9.76133 64.5914 9.6721C64.6807 9.58286 64.7308 9.46184 64.7308 9.33564V6.36651C64.7308 6.24031 64.6807 6.11929 64.5914 6.03005C64.5022 5.94082 64.3812 5.89069 64.255 5.89069H51.5315C51.4053 5.89069 51.2843 5.94082 51.195 6.03005C51.1058 6.11929 51.0557 6.24031 51.0557 6.36651V21.5262C51.0557 21.6524 51.1058 21.7734 51.195 21.8627C51.2843 21.9519 51.4053 22.002 51.5315 22.002H55.7187C55.8449 22.002 55.9659 21.9519 56.0552 21.8627C56.1444 21.7734 56.1945 21.6524 56.1945 21.5262V15.902H64.255C64.3778 15.8971 64.494 15.8448 64.5792 15.7561C64.6643 15.6674 64.7119 15.5491 64.7118 15.4262Z" fill="#FF6C65"/>
<path d="M85.2007 22.002H89.3879C89.5141 22.002 89.6351 21.9519 89.7244 21.8627C89.8136 21.7734 89.8637 21.6524 89.8637 21.5262V6.36651C89.8637 6.24031 89.8136 6.11929 89.7244 6.03005C89.6351 5.94082 89.5141 5.89069 89.3879 5.89069H82.4885C82.3907 5.89073 82.2953 5.9209 82.2153 5.97709C82.1352 6.03328 82.0745 6.11277 82.0412 6.20473L78.7676 15.3595L75.5034 6.20473C75.469 6.11352 75.408 6.03478 75.3282 5.97877C75.2484 5.92276 75.1536 5.89206 75.0562 5.89069H68.1472C68.021 5.89069 67.9 5.94082 67.8108 6.03005C67.7215 6.11929 67.6714 6.24031 67.6714 6.36651V21.5262C67.6714 21.6524 67.7215 21.7734 67.8108 21.8627C67.9 21.9519 68.021 22.002 68.1472 22.002H72.3249C72.4504 21.9996 72.57 21.9487 72.6587 21.86C72.7474 21.7713 72.7983 21.6516 72.8008 21.5262V10.5442L75.9697 21.6499C75.9968 21.7505 76.0562 21.8395 76.1387 21.9031C76.2212 21.9667 76.3223 22.0014 76.4265 22.002H81.0896C81.1938 22.0014 81.2949 21.9667 81.3774 21.9031C81.4599 21.8395 81.5193 21.7505 81.5464 21.6499L84.6963 10.5442V21.5262C84.6975 21.5908 84.7116 21.6544 84.7378 21.7135C84.7639 21.7725 84.8015 21.8258 84.8485 21.8701C84.8955 21.9144 84.9508 21.9489 85.0113 21.9716C85.0718 21.9942 85.1362 22.0046 85.2007 22.002Z" fill="#FF6C65"/>
<path d="M92.6904 21.7927C92.7336 21.8566 92.7917 21.909 92.8596 21.9455C92.9276 21.982 93.0034 22.0014 93.0806 22.002H97.068C97.1721 22.0014 97.2733 21.9667 97.3558 21.9031C97.4383 21.8395 97.4977 21.7505 97.5247 21.6499L97.7817 20.7744H102.664L102.921 21.6594C102.949 21.7583 103.009 21.8451 103.092 21.9069C103.174 21.9686 103.274 22.002 103.377 22.002H107.403C107.48 22.0014 107.556 21.982 107.624 21.9455C107.692 21.909 107.75 21.8566 107.793 21.7927C107.835 21.7305 107.862 21.6595 107.872 21.5853C107.882 21.511 107.874 21.4354 107.85 21.3644L102.473 6.20473C102.44 6.11277 102.379 6.03328 102.299 5.97709C102.219 5.9209 102.124 5.89073 102.026 5.89069H98.4954C98.3976 5.89073 98.3022 5.9209 98.2222 5.97709C98.1422 6.03328 98.0814 6.11277 98.0481 6.20473L92.6333 21.3644C92.6067 21.435 92.598 21.511 92.608 21.5857C92.618 21.6604 92.6463 21.7315 92.6904 21.7927ZM100.256 12.2096L101.588 16.8536H98.9712L100.256 12.2096Z" fill="#FF6C65"/>
<path d="M118.708 5.89069H111.095C110.969 5.89069 110.848 5.94082 110.759 6.03006C110.669 6.11929 110.619 6.24032 110.619 6.36651V21.5262C110.622 21.6516 110.672 21.7713 110.761 21.86C110.85 21.9487 110.97 21.9996 111.095 22.002H118.708C121.42 22.002 123.466 21.3168 124.799 19.975C126.131 18.6332 126.807 16.4825 126.759 13.6656C126.695 11.5762 125.817 9.59444 124.313 8.14228C122.81 6.69012 120.799 5.88226 118.708 5.89069ZM118.708 18.0717H115.787V9.81147H118.708C120.031 9.81147 121.62 10.5252 121.62 13.9416C121.62 17.358 120.031 18.0813 118.708 18.0813V18.0717Z" fill="#FF6C65"/>
<path d="M129.995 5.89069C129.956 5.89069 129.918 5.89832 129.882 5.91314C129.846 5.92797 129.814 5.9497 129.786 5.97709C129.759 6.00449 129.737 6.03701 129.722 6.0728C129.707 6.10859 129.7 6.14695 129.7 6.1857V21.707C129.7 21.7458 129.707 21.7841 129.722 21.8199C129.737 21.8557 129.759 21.8882 129.786 21.9156C129.814 21.943 129.846 21.9647 129.882 21.9796C129.918 21.9944 129.956 22.002 129.995 22.002H143.07C143.149 22.002 143.224 21.9709 143.279 21.9156C143.334 21.8603 143.365 21.7853 143.365 21.707V18.3667C143.365 18.2885 143.334 18.2135 143.279 18.1581C143.224 18.1028 143.149 18.0717 143.07 18.0717H134.839V15.902H143.07C143.149 15.902 143.224 15.8709 143.279 15.8156C143.334 15.7603 143.365 15.6852 143.365 15.607V12.2762C143.365 12.198 143.334 12.1229 143.279 12.0676C143.224 12.0123 143.149 11.9812 143.07 11.9812H134.839V9.81146H143.07C143.109 9.81146 143.147 9.80383 143.183 9.78901C143.219 9.77418 143.252 9.75245 143.279 9.72506C143.306 9.69766 143.328 9.66514 143.343 9.62935C143.358 9.59356 143.365 9.55519 143.365 9.51645V6.1857C143.365 6.10745 143.334 6.03242 143.279 5.97709C143.224 5.92177 143.149 5.89069 143.07 5.89069H129.995Z" fill="#FF6C65"/>
</g>
<defs>
<clipPath id="clip0">
<rect width="160" height="22.002" fill="white"/>
</clipPath>
</defs>
</svg>
