<svg width="22" height="14" viewBox="0 0 22 14" fill="none" xmlns="http://www.w3.org/2000/svg">
<path d="M9.05119 6.21564C9.50773 5.98599 9.85289 5.73022 10.0894 5.45381C10.5102 4.95601 10.7179 4.29594 10.7179 3.47773C10.7179 2.68153 10.5102 2.00083 10.0949 1.43015C9.40185 0.500552 8.22885 0.0247526 6.57043 0H0V13.4118H6.12626C6.81658 13.4118 7.45602 13.3526 8.04733 13.2316C8.63864 13.1092 9.1502 12.8851 9.58337 12.5578C9.96841 12.2731 10.2902 11.9197 10.546 11.5031C10.9503 10.8732 11.1524 10.1595 11.1524 9.36472C11.1524 8.59464 10.975 7.93869 10.623 7.39964C10.2668 6.86058 9.74426 6.46592 9.05119 6.21564ZM2.71041 2.32949H5.66971C6.32015 2.32949 6.85646 2.39962 7.27725 2.53851C7.76405 2.74066 8.00745 3.15183 8.00745 3.77889C8.00745 4.34132 7.82181 4.73461 7.45465 4.95601C7.08473 5.17741 6.60481 5.2888 6.01625 5.2888H2.71041V2.32949ZM7.39001 10.8485C7.06273 11.0066 6.60206 11.085 6.01212 11.085H2.71041V7.50828H6.0575C6.64056 7.5124 7.09436 7.58941 7.41889 7.7338C7.99645 7.99508 8.28386 8.47363 8.28386 9.17357C8.28386 9.99866 7.98683 10.5542 7.39001 10.8485Z" fill="#2150BA"/>
<path d="M19.886 0.625774H14.0596V2.2952H19.886V0.625774Z" fill="#2150BA"/>
<path d="M21.9095 7.21392C21.7885 6.43697 21.5217 5.75352 21.1064 5.16359C20.6512 4.49527 20.0737 4.00572 19.371 3.69631C18.671 3.38553 17.8831 3.23014 17.0058 3.23152C15.533 3.23152 14.3366 3.69219 13.4111 4.60666C12.4884 5.52388 12.0264 6.84264 12.0264 8.56156C12.0264 10.3946 12.5365 11.7189 13.5624 12.5316C14.5841 13.3457 15.764 13.7513 17.1034 13.7513C18.7247 13.7513 19.9857 13.2687 20.8864 12.3061C21.4626 11.6983 21.7885 11.1001 21.86 10.5129H19.1757C19.0203 10.803 18.8402 11.0299 18.6339 11.195C18.2599 11.4975 17.7731 11.6488 17.1763 11.6488C16.6083 11.6488 16.127 11.5236 15.7255 11.2747C15.0627 10.8759 14.7161 10.1774 14.6721 9.18312H21.9975C22.0085 8.32641 21.981 7.66772 21.9095 7.21392ZM14.7381 7.47107C14.8344 6.82613 15.0682 6.31458 15.4395 5.93642C15.8108 5.55963 16.3361 5.36986 17.0085 5.36849C17.6287 5.36849 18.1471 5.54588 18.5693 5.90204C18.986 6.26095 19.2211 6.78213 19.2692 7.47107H14.7381Z" fill="#2150BA"/>
</svg>
