<svg width="522" height="99" viewBox="0 0 522 99" fill="none" xmlns="http://www.w3.org/2000/svg">
<g clip-path="url(#clip0)">
<path d="M0 25.3059H46.3932V36.5786H11.9823V54.2927H40.402V65.4887H11.9823V85.8102H46.3932V97.0828H0V25.3059Z" fill="#2150BA"/>
<path d="M58.375 25.3059H70.5878L103.923 75.8412V25.3059H116.136V97.0828H103.923L70.5878 46.4709V97.0828H58.375V25.3059Z" fill="#2150BA"/>
<path d="M142.174 93.9387C136.951 90.7947 133.034 86.4236 130.269 80.749C127.504 75.0743 126.121 68.5561 126.121 61.1944C126.121 53.8326 127.504 47.3144 130.269 41.6398C133.034 35.9651 137.028 31.5941 142.174 28.45C147.397 25.3059 153.465 23.7722 160.532 23.7722C168.674 23.7722 175.51 25.766 181.04 29.8303C186.57 33.8946 190.488 39.4926 192.792 46.701L180.733 49.9984C179.35 45.2439 176.969 41.6398 173.513 39.0325C170.133 36.4252 165.755 35.1216 160.532 35.1216C153.465 35.1216 148.089 37.4221 144.325 42.0999C140.561 46.7776 138.718 53.0658 138.718 61.1177C138.641 69.1696 140.485 75.5344 144.248 80.1355C148.012 84.8133 153.389 87.1138 160.455 87.1138C165.678 87.1138 170.056 85.8102 173.436 83.2029C176.816 80.5956 179.197 76.9147 180.656 72.1603L192.715 75.5344C190.488 82.7428 186.57 88.3408 180.963 92.4051C175.433 96.4693 168.597 98.4631 160.455 98.4631C153.465 98.6165 147.397 97.0061 142.174 93.9387Z" stroke="#2150BA" stroke-miterlimit="10"/>
<path d="M203.777 25.3059H215.76V55.5197H249.786V25.3059H261.922V97.0828H249.863V66.7924H215.837V97.0828H203.854V25.3059H203.777Z" stroke="#2150BA" stroke-miterlimit="10"/>
<path d="M321.526 97.0828L316.533 81.5158H288.19L283.275 97.0828H270.908L293.567 25.3059H311.233L333.892 97.0828H321.526ZM291.8 70.2432H313L302.247 36.8086L291.8 70.2432Z" stroke="#2150BA" stroke-miterlimit="10"/>
<path d="M342.879 25.3059H355.092L388.427 75.8412V25.3059H400.64V97.0828H388.427L355.092 46.4709V97.0828H342.879V25.3059Z" stroke="#2150BA" stroke-miterlimit="10"/>
<path d="M431.826 36.5786H408.629V25.3059H467.235V36.5786H443.961V97.0828H431.902V36.5786H431.826Z" stroke="#2150BA" stroke-miterlimit="10"/>
<path d="M521.616 25.3061V36.5787H487.206V54.2929H515.625V65.4889H487.206V85.8103H521.616V97.083H475.146V25.3061H521.616ZM482.751 10.0458L509.481 0.460205L512.476 9.20226L485.823 18.7879L482.751 10.0458Z" stroke="#2150BA" stroke-miterlimit="10"/>
</g>
<defs>
<clipPath id="clip0">
<rect width="522" height="99" fill="white"/>
</clipPath>
</defs>
</svg>
