<svg width="22" height="22" viewBox="0 0 22 22" fill="none" xmlns="http://www.w3.org/2000/svg">
<path d="M10.9986 0.228905C4.92525 0.228905 0 5.1734 0 11.2729C0 16.1514 3.1515 20.2902 7.524 21.7518C8.074 21.8535 8.27475 21.5125 8.27475 21.2197C8.27475 20.957 8.26513 20.2627 8.25962 19.3414C5.20025 20.0083 4.554 17.8605 4.554 17.8605C4.05487 16.5845 3.333 16.2449 3.333 16.2449C2.33337 15.5602 3.40725 15.5739 3.40725 15.5739C4.51137 15.6523 5.09163 16.7124 5.09163 16.7124C6.07338 18.3995 7.667 17.9128 8.294 17.6295C8.393 16.9159 8.67762 16.4292 8.9925 16.1528C6.5505 15.8737 3.982 14.9263 3.982 10.6954C3.982 9.48953 4.411 8.50365 5.115 7.7309C5.00087 7.45178 4.62413 6.3284 5.22225 4.80903C5.22225 4.80903 6.14625 4.51203 8.24725 5.94065C9.1245 5.6959 10.065 5.57353 11.0014 5.5694C11.935 5.5749 12.8769 5.6959 13.7555 5.94203C15.8551 4.5134 16.7778 4.8104 16.7778 4.8104C17.3772 6.33115 17.0005 7.45315 16.8877 7.73228C17.5931 8.50503 18.018 9.4909 18.018 10.6968C18.018 14.9387 15.4467 15.8723 12.9965 16.1459C13.3911 16.4869 13.7431 17.1607 13.7431 18.1905C13.7431 19.6673 13.7294 20.858 13.7294 21.2197C13.7294 21.5153 13.9274 21.859 14.4856 21.7504C18.8512 20.2874 22 16.15 22 11.2729C22 5.1734 17.0748 0.228905 10.9986 0.228905Z" fill="#2150BA"/>
</svg>
