<svg width="522" height="187" viewBox="0 0 522 187" fill="none" xmlns="http://www.w3.org/2000/svg">
<path d="M1.43164 3.07104H13.5106L41.5511 60.3662L69.5053 3.07104H81.5843V83.8365H68.9876V32.0638L44.312 83.9228H38.9628L14.1146 32.0638V83.9228H1.43164V3.07104Z" stroke="#2150BA" stroke-miterlimit="10"/>
<path d="M110.919 80.2987C105.052 76.7609 100.652 71.8424 97.5458 65.4571C94.4397 59.0718 92.8867 51.7374 92.8867 43.4537C92.8867 35.1701 94.4397 27.8356 97.5458 21.4503C100.652 15.065 105.138 10.1466 110.919 6.60878C116.786 3.07097 123.602 1.34521 131.539 1.34521C139.477 1.34521 146.379 3.07097 152.16 6.60878C158.027 10.1466 162.427 15.065 165.533 21.4503C168.639 27.8356 170.106 35.1701 170.106 43.4537C170.106 51.7374 168.553 59.0718 165.533 65.4571C162.427 71.8424 158.027 76.7609 152.16 80.2987C146.293 83.8365 139.477 85.5622 131.539 85.5622C123.602 85.5622 116.7 83.8365 110.919 80.2987ZM149.658 64.9394C153.799 59.6758 155.87 52.5139 155.87 43.4537C155.87 34.3935 153.799 27.3179 149.658 22.0543C145.517 16.877 139.477 14.2021 131.539 14.1158C123.602 14.0295 117.562 16.6182 113.421 21.8817C109.28 27.1453 107.209 34.3072 107.209 43.4537C107.123 52.5139 109.193 59.6758 113.335 64.8531C117.562 70.0304 123.602 72.7053 131.539 72.7916C139.477 72.8779 145.517 70.2893 149.658 64.9394Z" stroke="#2150BA" stroke-miterlimit="10"/>
<path d="M181.322 3.07104H195.041L232.485 59.9348V3.07104H246.204V83.8365H232.485L195.041 26.8865V83.8365H181.322V3.07104Z" stroke="#2150BA" stroke-miterlimit="10"/>
<path d="M281.232 15.7554H255.09V3.07104H320.92V15.7554H294.778V83.8365H281.232V15.7554Z" stroke="#2150BA" stroke-miterlimit="10"/>
<path d="M329.98 3.07104H343.44V37.0685H381.661V3.07104H395.207V83.8365H381.661V49.7528H343.44V83.8365H329.98V3.07104Z" stroke="#2150BA" stroke-miterlimit="10"/>
<path d="M412.031 3.07104H425.491V71.1522H461.124V83.8365H412.031V3.07104Z" stroke="#2150BA" stroke-miterlimit="10"/>
<path d="M479.156 50.7883L451.633 3.07104H467.422L485.972 35.2564L504.521 3.07104H520.31L492.788 50.7883V83.9228H479.069V50.7883H479.156Z" stroke="#2150BA" stroke-miterlimit="10"/>
<path d="M47.4178 184.491L33.7858 156.361H14.4594V184.491H1V103.726H34.3897C36.8055 103.726 38.8762 103.898 40.7743 104.157C47.5903 105.193 52.6808 108.04 56.2182 112.613C59.7556 117.187 61.3949 122.968 61.3949 129.957C61.3949 135.566 60.2733 140.484 57.9437 144.626C55.6142 148.854 52.2494 151.874 47.7629 153.859L62.6891 184.491H47.4178ZM14.4594 143.677H33.8721C35.8565 143.677 37.582 143.505 38.9625 143.159C42.0685 142.383 44.3118 140.743 45.6922 138.241C47.0727 135.739 47.8492 132.977 47.8492 129.957C47.8492 126.937 47.1589 124.262 45.6922 121.76C44.3118 119.258 42.0685 117.704 38.9625 116.928C37.582 116.583 35.9428 116.324 33.8721 116.324H14.4594V143.677Z" fill="#2150BA" stroke="#2150BA" stroke-miterlimit="10"/>
<path d="M75.0264 103.726H127.139V116.41H88.4858V136.343H120.409V148.941H88.4858V171.807H127.139V184.491H75.0264V103.726Z" fill="#2150BA" stroke="#2150BA" stroke-miterlimit="10"/>
<path d="M151.469 180.953C145.602 177.416 141.202 172.497 138.096 166.112C134.99 159.727 133.437 152.392 133.437 144.109C133.437 135.825 134.99 128.49 138.096 122.105C141.202 115.72 145.688 110.801 151.469 107.264C157.336 103.726 164.152 102 172.089 102C181.235 102 188.914 104.243 195.126 108.817C201.338 113.39 205.738 119.689 208.326 127.8L194.78 131.51C193.227 126.161 190.553 122.105 186.67 119.171C182.788 116.237 177.956 114.771 172.089 114.771C164.152 114.771 158.112 117.359 153.885 122.623C149.657 127.886 147.586 134.962 147.586 144.022C147.5 153.082 149.571 160.244 153.798 165.422C158.026 170.685 164.065 173.274 172.003 173.274C177.87 173.274 182.788 171.807 186.584 168.873C190.38 165.939 193.055 161.798 194.694 156.448L208.24 160.244C205.738 168.355 201.338 174.654 195.039 179.228C188.827 183.801 181.148 186.044 172.003 186.044C164.152 186.217 157.249 184.405 151.469 180.953Z" fill="#2150BA" stroke="#2150BA" stroke-miterlimit="10"/>
<path d="M269.67 184.491L264.062 166.975H232.225L226.703 184.491H212.812L238.265 103.726H258.109L283.561 184.491H269.67ZM236.194 154.377H260.007L248.014 116.669L236.194 154.377Z" fill="#2150BA" stroke="#2150BA" stroke-miterlimit="10"/>
<path d="M327.046 103.726C329.462 103.726 331.532 103.898 333.431 104.157C340.247 105.193 345.337 108.04 348.874 112.613C352.326 117.187 354.051 122.968 354.051 129.957C354.051 136.86 352.326 142.555 348.788 147.215C345.251 151.874 340.16 154.722 333.431 155.844C331.532 156.103 329.462 156.275 327.046 156.275H307.116V184.405H293.656V103.726H327.046ZM331.532 143.159C334.638 142.383 336.882 140.743 338.262 138.241C339.643 135.739 340.419 132.977 340.419 129.957C340.419 126.937 339.729 124.262 338.262 121.76C336.882 119.258 334.638 117.704 331.532 116.928C330.152 116.583 328.513 116.324 326.442 116.324H307.029V143.591H326.442C328.513 143.677 330.238 143.505 331.532 143.159Z" fill="#2150BA" stroke="#2150BA" stroke-miterlimit="10"/>
</svg>
