<svg width="35" height="36" viewBox="0 0 35 36" fill="none" xmlns="http://www.w3.org/2000/svg">
    <path d="M34.3164 34.4371H0.683594V0.73877L34.3164 34.4371ZM6.56251 28.5467H20.3033L6.56251 14.7791V28.5467Z" fill="#2150BA"/>
    <path d="M0.683595 35.1212H34.3165C34.5928 35.1212 34.8422 34.9545 34.948 34.6985C35.0537 34.4425 34.9952 34.1479 34.7998 33.952L1.16692 0.253644C0.971452 0.0575288 0.677453 -0.000797464 0.421906 0.105153C0.166626 0.211103 0 0.460729 0 0.737912V34.4363C0 34.8146 0.306015 35.1212 0.683595 35.1212V35.1212ZM1.36719 2.39138L6.86585 7.9008L5.41535 9.35334C5.14832 9.62089 5.14832 10.0546 5.41535 10.3221C5.68185 10.5894 6.11497 10.59 6.382 10.3221L7.8325 8.86934L10.7327 11.7755L9.28247 13.228C9.01544 13.4956 9.01544 13.9293 9.2822 14.1968C9.54896 14.4641 9.98208 14.4646 10.2491 14.1968L11.6996 12.744L14.5996 15.6499L13.1496 17.103C12.8826 17.3703 12.8826 17.804 13.1496 18.0715C13.4166 18.3391 13.8492 18.3391 14.1162 18.0715L15.5665 16.6184L18.4667 19.5246L17.0167 20.9777C16.7497 21.2449 16.7497 21.6786 17.0167 21.9462C17.2837 22.2137 17.7163 22.2137 17.9833 21.9462L19.4336 20.4934L22.3338 23.399L20.8838 24.8523C20.6168 25.1199 20.6168 25.5536 20.8838 25.8211C21.1508 26.0884 21.5837 26.0884 21.8507 25.8209L23.3004 24.3678L26.2006 27.2737L24.7507 28.727C24.4839 28.9946 24.4839 29.4283 24.7509 29.6956C25.0177 29.9631 25.4508 29.9631 25.7178 29.6956L27.1675 28.2422L32.6659 33.7514H1.36719V2.39138Z" fill="white"/>
    <path d="M7.04582 14.2948C6.85036 14.099 6.55636 14.0404 6.30081 14.1464C6.04553 14.2523 5.87891 14.5022 5.87891 14.7791V28.5468C5.87891 28.9251 6.18492 29.2317 6.5625 29.2317H20.3033C20.5799 29.2317 20.8291 29.065 20.9351 28.809C21.0408 28.5532 20.9821 28.2583 20.7869 28.0625L7.04582 14.2948ZM7.24609 27.8621V16.4328L18.653 27.8621H7.24609Z" fill="#2150BA"/>
</svg>
